<svg width="37" height="36" viewBox="0 0 37 36" fill="none" xmlns="http://www.w3.org/2000/svg">
<path fill-rule="evenodd" clip-rule="evenodd" d="M30.8277 2.01855H7.05132C3.68608 2.01855 0.945312 4.75892 0.945312 8.09801V22.8131C0.945312 26.1637 3.69764 28.8925 7.05132 28.8925H15.4471L16.8926 31.3796L18.3151 33.8321C18.5695 34.2811 19.2171 34.2811 19.4831 33.8321L20.9055 31.3796L22.351 28.8925H30.8393C34.2045 28.8925 36.9453 26.1522 36.9453 22.8131V8.10953C36.9453 4.75892 34.193 2.01855 30.8277 2.01855ZM20.604 12.7957C18.7652 12.7957 17.2734 14.258 17.2734 16.0657C17.2734 17.8734 18.7652 19.3357 20.604 19.3357C22.4427 19.3357 23.9345 17.8734 23.9345 16.0657C23.9345 14.258 22.4543 12.7957 20.604 12.7957ZM20.604 17.6316C19.7251 17.6316 19.0081 16.9293 19.0081 16.0657C19.0081 15.2022 19.7251 14.4998 20.604 14.4998C21.4829 14.4998 22.1999 15.2022 22.1999 16.0657C22.1999 16.9293 21.4944 17.6316 20.604 17.6316ZM8.16281 13.5413C8.6832 13.0693 9.35394 12.7929 10.0709 12.7929C11.7362 12.7929 13.0661 14.2667 13.0661 16.0745C13.0661 17.8822 11.7246 19.3445 10.0709 19.3445C9.34237 19.3445 8.6832 19.0566 8.16281 18.5961V19.1833H6.3125V10.8355H8.16281V13.5413ZM8.17437 16.7077C8.42879 17.295 9.01857 17.698 9.70087 17.698C10.626 17.698 11.3661 16.9726 11.3661 16.0629C11.3661 15.1533 10.626 14.4279 9.70087 14.4279C9.01857 14.4279 8.42879 14.8309 8.17437 15.4182C8.08185 15.6139 8.0356 15.8327 8.0356 16.0629C8.0356 16.2932 8.09342 16.512 8.17437 16.7077ZM29.7036 12.9301V13.4483C29.1832 13.0453 28.5356 12.8035 27.8418 12.8035C26.1418 12.8035 24.7656 14.2197 24.7656 15.9584C24.7656 17.697 26.1418 19.1132 27.8418 19.1132C28.5472 19.1132 29.1948 18.8714 29.7036 18.4684V19.3435C29.7036 19.3435 29.5186 20.2071 28.2234 20.2071V21.8306C28.2234 21.8306 29.6227 21.9918 30.8716 20.7482C30.8716 20.7482 31.4499 20.138 31.5771 19.332V12.9301H29.7036ZM28.1887 17.5588C27.252 17.5588 26.5003 16.8334 26.5003 15.9468C26.5003 15.0603 27.2635 14.3349 28.1887 14.3349C28.8479 14.3349 29.4261 14.7033 29.7036 15.233C29.8193 15.4517 29.8771 15.6935 29.8771 15.9468C29.8771 16.2002 29.8077 16.4535 29.7036 16.6607C29.4261 17.2019 28.8479 17.5588 28.1887 17.5588ZM13.2734 12.3444V10.6748C13.2734 10.6748 14.4993 10.5136 15.5863 11.7917C15.5863 11.7917 16.0836 12.4135 16.1992 13.2425V13.2885V19.1837H14.2911V13.2885C14.1292 12.4595 13.2734 12.3444 13.2734 12.3444Z" fill="white" fill-opacity="0.8"/>
</svg>
