<svg width="36" height="36" viewBox="0 0 36 36" fill="none" xmlns="http://www.w3.org/2000/svg">
<path d="M18 36C27.9411 36 36 27.9411 36 18C36 8.05888 27.9411 0 18 0C8.05888 0 0 8.05888 0 18C0 27.9411 8.05888 36 18 36Z" fill="white" fill-opacity="0.8"/>
<path d="M18 9.20312C13.0304 9.20312 8.99219 12.6466 8.99219 16.8883C9.07827 19.6196 10.6435 22.0927 13.0852 23.3292L12.24 27.1092L16.3018 24.4405C16.8652 24.5344 17.4287 24.5814 18 24.5814C22.9696 24.5814 27.0078 21.1379 27.0078 16.8962C27.0078 12.6544 22.9774 9.21095 18 9.21095" fill="#1C1C1C"/>
</svg>
