<svg width="168" height="154" viewBox="0 0 168 154" fill="none" xmlns="http://www.w3.org/2000/svg">
<circle cx="82" cy="85.8608" r="67.5" stroke="white" stroke-opacity="0.2"/>
<path d="M35.6391 58.8028C35.6391 58.8028 35.2875 56.3209 34.2048 55.2311C32.8338 53.7968 31.3011 53.7898 30.598 53.7054C25.564 53.3398 18.0059 53.3398 18.0059 53.3398H17.9918C17.9918 53.3398 10.4337 53.3398 5.39965 53.7054C4.69657 53.7898 3.16386 53.7968 1.79285 55.2311C0.71011 56.3209 0.365601 58.8028 0.365601 58.8028C0.365601 58.8028 0 61.7205 0 64.6313V67.3592C0 70.27 0.35857 73.1878 0.35857 73.1878C0.35857 73.1878 0.71011 75.6696 1.78582 76.7594C3.15683 78.1937 4.95671 78.1445 5.75822 78.2992C8.64084 78.5734 17.9988 78.6577 17.9988 78.6577C17.9988 78.6577 25.564 78.6437 30.598 78.2851C31.3011 78.2007 32.8338 78.1937 34.2048 76.7594C35.2875 75.6696 35.6391 73.1878 35.6391 73.1878C35.6391 73.1878 35.9977 70.277 35.9977 67.3592V64.6313C35.9977 61.7205 35.6391 58.8028 35.6391 58.8028ZM14.2795 70.6707V60.5534L24.0031 65.6297L14.2795 70.6707Z" fill="white" fill-opacity="0.8"/>
<path d="M150 84C159.941 84 168 75.9411 168 66C168 56.0589 159.941 48 150 48C140.059 48 132 56.0589 132 66C132 75.9411 140.059 84 150 84Z" fill="white" fill-opacity="0.8"/>
<path d="M150 57.2031C145.03 57.2031 140.992 60.6466 140.992 64.8883C141.078 67.6196 142.643 70.0927 145.085 71.3292L144.24 75.1092L148.302 72.4405C148.865 72.5344 149.429 72.5814 150 72.5814C154.97 72.5814 159.008 69.1379 159.008 64.8962C159.008 60.6544 154.977 57.211 150 57.211" fill="#1C1C1C"/>
<g clip-path="url(#clip0_87_621)">
<path d="M150 134.922C150 125.024 141.941 117 132 117C122.059 117 114 125.024 114 134.922C114 143.867 120.582 151.281 129.188 152.626V140.102H124.617V134.922H129.188V130.973C129.188 126.482 131.875 124.001 135.986 124.001C137.955 124.001 140.016 124.351 140.016 124.351V128.761H137.746C135.51 128.761 134.812 130.143 134.812 131.561V134.922H139.805L139.007 140.102H134.812V152.626C143.418 151.281 150 143.867 150 134.922Z" fill="white" fill-opacity="0.8"/>
<path d="M139.007 140.102L139.805 134.922H134.812V131.561C134.812 130.144 135.51 128.761 137.746 128.761H140.016V124.351C140.016 124.351 137.956 124.001 135.986 124.001C131.875 124.001 129.188 126.482 129.188 130.973V134.922H124.617V140.102H129.188V152.626C131.051 152.916 132.949 152.916 134.812 152.626V140.102H139.007Z" fill="#1C1C1C"/>
</g>
<path d="M36.0035 120.242C40.8138 120.242 41.3835 120.263 43.2753 120.348C45.0334 120.425 45.9828 120.72 46.6157 120.966C47.4526 121.29 48.0574 121.684 48.6833 122.31C49.3163 122.943 49.7031 123.54 50.0266 124.377C50.2727 125.01 50.5681 125.967 50.6454 127.718C50.7298 129.617 50.7509 130.186 50.7509 134.989C50.7509 139.8 50.7298 140.369 50.6454 142.261C50.5681 144.019 50.2727 144.969 50.0266 145.602C49.7031 146.439 49.3092 147.043 48.6833 147.669C48.0504 148.302 47.4526 148.689 46.6157 149.013C45.9828 149.259 45.0264 149.554 43.2753 149.631C41.3764 149.716 40.8068 149.737 36.0035 149.737C31.1932 149.737 30.6236 149.716 28.7318 149.631C26.9736 149.554 26.0242 149.259 25.3913 149.013C24.5544 148.689 23.9496 148.295 23.3237 147.669C22.6908 147.036 22.304 146.439 21.9805 145.602C21.7343 144.969 21.439 144.012 21.3616 142.261C21.2772 140.362 21.2561 139.793 21.2561 134.989C21.2561 130.179 21.2772 129.609 21.3616 127.718C21.439 125.96 21.7343 125.01 21.9805 124.377C22.304 123.54 22.6978 122.936 23.3237 122.31C23.9566 121.677 24.5544 121.29 25.3913 120.966C26.0242 120.72 26.9807 120.425 28.7318 120.348C30.6236 120.263 31.1932 120.242 36.0035 120.242ZM36.0035 117C31.1158 117 30.504 117.021 28.5841 117.105C26.6712 117.19 25.3561 117.499 24.2168 117.942C23.0283 118.407 22.0227 119.018 21.024 120.024C20.0184 121.023 19.4065 122.028 18.9424 123.21C18.4993 124.356 18.1899 125.664 18.1055 127.577C18.0211 129.504 18 130.116 18 135.004C18 139.891 18.0211 140.503 18.1055 142.423C18.1899 144.336 18.4993 145.651 18.9424 146.79C19.4065 147.979 20.0184 148.984 21.024 149.983C22.0227 150.982 23.0283 151.601 24.2098 152.058C25.3561 152.501 26.6642 152.81 28.5771 152.895C30.497 152.979 31.1088 153 35.9965 153C40.8842 153 41.496 152.979 43.4159 152.895C45.3288 152.81 46.6439 152.501 47.7832 152.058C48.9646 151.601 49.9703 150.982 50.9689 149.983C51.9676 148.984 52.5864 147.979 53.0436 146.797C53.4866 145.651 53.7961 144.343 53.8805 142.43C53.9648 140.51 53.9859 139.898 53.9859 135.011C53.9859 130.123 53.9648 129.511 53.8805 127.591C53.7961 125.678 53.4866 124.363 53.0436 123.224C52.6005 122.028 51.9887 121.023 50.983 120.024C49.9844 119.025 48.9787 118.407 47.7972 117.949C46.6509 117.506 45.3428 117.197 43.43 117.113C41.503 117.021 40.8912 117 36.0035 117Z" fill="white" fill-opacity="0.8"/>
<path d="M36.0057 125.754C30.9 125.754 26.7578 129.896 26.7578 135.002C26.7578 140.107 30.9 144.25 36.0057 144.25C41.1114 144.25 45.2536 140.107 45.2536 135.002C45.2536 129.896 41.1114 125.754 36.0057 125.754ZM36.0057 141.001C32.6933 141.001 30.0069 138.314 30.0069 135.002C30.0069 131.689 32.6933 129.003 36.0057 129.003C39.3181 129.003 42.0045 131.689 42.0045 135.002C42.0045 138.314 39.3181 141.001 36.0057 141.001Z" fill="white" fill-opacity="0.8"/>
<path d="M47.7781 125.385C47.7781 126.58 46.8078 127.544 45.6195 127.544C44.4242 127.544 43.4609 126.573 43.4609 125.385C43.4609 124.19 44.4313 123.227 45.6195 123.227C46.8078 123.227 47.7781 124.197 47.7781 125.385Z" fill="white" fill-opacity="0.8"/>
<path fill-rule="evenodd" clip-rule="evenodd" d="M93.8277 2.01855H70.0513C66.6861 2.01855 63.9453 4.75892 63.9453 8.09801V22.8131C63.9453 26.1637 66.6976 28.8925 70.0513 28.8925H78.4471L79.8926 31.3796L81.3151 33.8321C81.5695 34.2811 82.2171 34.2811 82.4831 33.8321L83.9055 31.3796L85.351 28.8925H93.8393C97.2045 28.8925 99.9453 26.1522 99.9453 22.8131V8.10953C99.9453 4.75892 97.193 2.01855 93.8277 2.01855ZM83.604 12.7957C81.7652 12.7957 80.2734 14.258 80.2734 16.0657C80.2734 17.8734 81.7652 19.3357 83.604 19.3357C85.4427 19.3357 86.9345 17.8734 86.9345 16.0657C86.9345 14.258 85.4543 12.7957 83.604 12.7957ZM83.604 17.6316C82.7251 17.6316 82.0081 16.9293 82.0081 16.0657C82.0081 15.2022 82.7251 14.4998 83.604 14.4998C84.4829 14.4998 85.1999 15.2022 85.1999 16.0657C85.1999 16.9293 84.4944 17.6316 83.604 17.6316ZM71.1628 13.5413C71.6832 13.0693 72.3539 12.7929 73.0709 12.7929C74.7362 12.7929 76.0661 14.2667 76.0661 16.0745C76.0661 17.8822 74.7246 19.3445 73.0709 19.3445C72.3424 19.3445 71.6832 19.0566 71.1628 18.5961V19.1833H69.3125V10.8355H71.1628V13.5413ZM71.1744 16.7077C71.4288 17.295 72.0186 17.698 72.7009 17.698C73.626 17.698 74.3661 16.9726 74.3661 16.0629C74.3661 15.1533 73.626 14.4279 72.7009 14.4279C72.0186 14.4279 71.4288 14.8309 71.1744 15.4182C71.0819 15.6139 71.0356 15.8327 71.0356 16.0629C71.0356 16.2932 71.0934 16.512 71.1744 16.7077ZM92.7036 12.9301V13.4483C92.1832 13.0453 91.5356 12.8035 90.8418 12.8035C89.1418 12.8035 87.7656 14.2197 87.7656 15.9584C87.7656 17.697 89.1418 19.1132 90.8418 19.1132C91.5472 19.1132 92.1948 18.8714 92.7036 18.4684V19.3435C92.7036 19.3435 92.5186 20.2071 91.2234 20.2071V21.8306C91.2234 21.8306 92.6227 21.9918 93.8716 20.7482C93.8716 20.7482 94.4499 20.138 94.5771 19.332V12.9301H92.7036ZM91.1887 17.5588C90.252 17.5588 89.5003 16.8334 89.5003 15.9468C89.5003 15.0603 90.2635 14.3349 91.1887 14.3349C91.8479 14.3349 92.4261 14.7033 92.7036 15.233C92.8193 15.4517 92.8771 15.6935 92.8771 15.9468C92.8771 16.2002 92.8077 16.4535 92.7036 16.6607C92.4261 17.2019 91.8479 17.5588 91.1887 17.5588ZM76.2734 12.3444V10.6748C76.2734 10.6748 77.4993 10.5136 78.5863 11.7917C78.5863 11.7917 79.0836 12.4135 79.1992 13.2425V13.2885V19.1837H77.2911V13.2885C77.1292 12.4595 76.2734 12.3444 76.2734 12.3444Z" fill="white" fill-opacity="0.8"/>
<defs>
<clipPath id="clip0_87_621">
<rect width="36" height="35.8435" fill="white" transform="translate(114 117)"/>
</clipPath>
</defs>
</svg>
