<svg width="50" height="50" viewBox="0 0 50 50" fill="none" xmlns="http://www.w3.org/2000/svg">
<path d="M37.6488 21.726C41.6759 21.726 44.9405 18.4614 44.9405 14.4344C44.9405 10.4073 41.6759 7.1427 37.6488 7.1427C33.6218 7.1427 30.3572 10.4073 30.3572 14.4344C30.3572 18.4614 33.6218 21.726 37.6488 21.726Z" fill="#FF3B2D"/>
<path fill-rule="evenodd" clip-rule="evenodd" d="M15.8975 41.0718C15.8979 43.6464 17.9852 45.7331 20.5597 45.7331C23.1343 45.7331 25.2216 43.6464 25.222 41.0718H23.222C23.2216 42.5417 22.0298 43.7331 20.5597 43.7331C19.0897 43.7331 17.8979 42.5417 17.8975 41.0718H15.8975Z" fill="#ACADB1"/>
<mask id="path-3-inside-1_4_1916" fill="white">
<path fill-rule="evenodd" clip-rule="evenodd" d="M19.7901 16.2856H21.1473L21.1473 17.8732C20.9238 17.8625 20.6976 17.8571 20.4687 17.8571C20.2398 17.8571 20.0136 17.8625 19.7901 17.8732V16.2856ZM17.7901 18.1234V16.2856C17.7901 15.1811 18.6855 14.2856 19.7901 14.2856H21.1473C22.2518 14.2856 23.1473 15.1811 23.1473 16.2856V18.1234C28.137 19.1578 31.3105 23.109 31.3105 28.2737V38.3922C31.3105 38.5827 31.3882 38.765 31.5255 38.897L34.3933 41.6523C34.8479 42.0891 34.5387 42.8571 33.9083 42.8571H7.02905C6.39864 42.8571 6.08948 42.0891 6.54407 41.6523L9.41183 38.897C9.54921 38.765 9.62685 38.5827 9.62685 38.3922V28.2737C9.62685 23.109 12.8004 19.1578 17.7901 18.1234Z"/>
</mask>
<path d="M21.1473 16.2856L23.1473 16.2856L23.1473 14.2856H21.1473V16.2856ZM19.7901 16.2856V14.2856H17.7901V16.2856H19.7901ZM21.1473 17.8732L21.0514 19.8709L23.1473 19.9715V17.8732L21.1473 17.8732ZM19.7901 17.8732H17.7901V19.9715L19.886 19.8709L19.7901 17.8732ZM17.7901 18.1234L18.1961 20.0817L19.7901 19.7513V18.1234H17.7901ZM23.1473 18.1234H21.1473V19.7513L22.7413 20.0817L23.1473 18.1234ZM31.5255 38.897L30.1399 40.3392L30.1399 40.3392L31.5255 38.897ZM34.3933 41.6523L33.0077 43.0945L33.0077 43.0945L34.3933 41.6523ZM6.54407 41.6523L5.15841 40.2101H5.15841L6.54407 41.6523ZM9.41183 38.897L10.7975 40.3392H10.7975L9.41183 38.897ZM21.1473 14.2856H19.7901V18.2856H21.1473V14.2856ZM23.1473 17.8732L23.1473 16.2856L19.1473 16.2856L19.1473 17.8732L23.1473 17.8732ZM20.4687 19.8571C20.666 19.8571 20.8603 19.8617 21.0514 19.8709L21.2432 15.8755C20.9874 15.8632 20.7292 15.8571 20.4687 15.8571V19.8571ZM19.886 19.8709C20.0771 19.8617 20.2714 19.8571 20.4687 19.8571V15.8571C20.2082 15.8571 19.95 15.8632 19.6942 15.8755L19.886 19.8709ZM17.7901 16.2856V17.8732H21.7901V16.2856H17.7901ZM15.7901 16.2856V18.1234H19.7901V16.2856H15.7901ZM19.7901 12.2856C17.581 12.2856 15.7901 14.0765 15.7901 16.2856H19.7901V16.2856V12.2856ZM21.1473 12.2856H19.7901V16.2856H21.1473V12.2856ZM25.1473 16.2856C25.1473 14.0765 23.3564 12.2856 21.1473 12.2856V16.2856L21.1473 16.2856H25.1473ZM25.1473 18.1234V16.2856H21.1473V18.1234H25.1473ZM22.7413 20.0817C26.7823 20.9195 29.3105 24.0362 29.3105 28.2737H33.3105C33.3105 22.1818 29.4916 17.3961 23.5532 16.165L22.7413 20.0817ZM29.3105 28.2737V38.3922H33.3105V28.2737H29.3105ZM29.3105 38.3922C29.3105 39.127 29.61 39.8301 30.1399 40.3392L32.9112 37.4548C33.1663 37.6999 33.3105 38.0384 33.3105 38.3922H29.3105ZM30.1399 40.3392L33.0077 43.0945L35.779 40.2101L32.9112 37.4548L30.1399 40.3392ZM33.0077 43.0945C32.1634 42.2834 32.7376 40.8571 33.9083 40.8571V44.8571C36.3399 44.8571 37.5324 41.8947 35.779 40.2101L33.0077 43.0945ZM33.9083 40.8571H7.02905V44.8571H33.9083V40.8571ZM7.02905 40.8571C8.19979 40.8571 8.77396 42.2834 7.92972 43.0945L5.15841 40.2101C3.405 41.8947 4.59749 44.8571 7.02905 44.8571V40.8571ZM7.92972 43.0945L10.7975 40.3392L8.02618 37.4548L5.15841 40.2101L7.92972 43.0945ZM10.7975 40.3392C11.3274 39.8301 11.6269 39.127 11.6269 38.3922H7.62685C7.62685 38.0384 7.77105 37.6999 8.02618 37.4548L10.7975 40.3392ZM11.6269 38.3922V28.2737H7.62685V38.3922H11.6269ZM11.6269 28.2737C11.6269 24.0362 14.155 20.9195 18.1961 20.0817L17.3841 16.165C11.4458 17.3961 7.62685 22.1818 7.62685 28.2737H11.6269Z" fill="#ACADB1" mask="url(#path-3-inside-1_4_1916)"/>
</svg>
