<svg width="41" height="41" viewBox="0 0 41 41" fill="none" xmlns="http://www.w3.org/2000/svg">
<path d="M34.0812 35.875C30.5222 35.875 27.0059 35.0991 23.5323 33.5474C20.0587 31.9957 16.8983 29.7962 14.051 26.949C11.2038 24.1017 9.00434 20.9413 7.4526 17.4677C5.90087 13.9941 5.125 10.4778 5.125 6.91875C5.125 6.40625 5.29583 5.97917 5.6375 5.6375C5.97917 5.29583 6.40625 5.125 6.91875 5.125H13.8375C14.2361 5.125 14.592 5.26024 14.9052 5.53073C15.2184 5.80122 15.4035 6.12153 15.4604 6.49167L16.5708 12.4708C16.6278 12.9264 16.6135 13.3108 16.5281 13.624C16.4427 13.9372 16.2861 14.2076 16.0583 14.4354L11.9156 18.6208C12.4851 19.6743 13.1613 20.6922 13.9443 21.6745C14.7273 22.6568 15.5885 23.6035 16.5281 24.5146C17.4108 25.3972 18.3361 26.2158 19.3042 26.9703C20.2722 27.7248 21.2972 28.4153 22.3792 29.0417L26.3937 25.0271C26.65 24.7708 26.9845 24.5786 27.3974 24.4505C27.8102 24.3224 28.216 24.2868 28.6146 24.3438L34.5083 25.5396C34.9069 25.6535 35.2344 25.8599 35.4906 26.1589C35.7469 26.4578 35.875 26.7924 35.875 27.1625V34.0812C35.875 34.5938 35.7042 35.0208 35.3625 35.3625C35.0208 35.7042 34.5938 35.875 34.0812 35.875ZM10.2927 15.375L13.1115 12.5563L12.3854 8.54167H8.58437C8.72674 9.70903 8.92604 10.8622 9.18229 12.001C9.43854 13.1399 9.80868 14.2646 10.2927 15.375ZM25.5823 30.6646C26.6927 31.1486 27.8245 31.533 28.9776 31.8177C30.1307 32.1024 31.291 32.2875 32.4583 32.3729V28.6146L28.4438 27.8031L25.5823 30.6646Z" fill="black"/>
</svg>
