<svg width="58" height="49" viewBox="0 0 58 49" fill="none" xmlns="http://www.w3.org/2000/svg">
<path d="M7.62825 30.7859C7.38898 30.5225 7.1075 30.3146 6.76972 30.1621C6.43193 30.0096 6.03786 29.9403 5.60155 29.9403C4.98229 29.9403 4.44746 30.0928 3.98301 30.3978C3.51856 30.7027 3.15263 31.1463 2.8993 31.7284C2.64596 32.3106 2.50522 33.0037 2.50522 33.8215C2.50522 34.6393 2.63189 35.3324 2.8993 35.9146C3.16671 36.4968 3.51856 36.9403 3.98301 37.2453C4.44746 37.5502 4.99636 37.7027 5.6297 37.7166C6.19267 37.7166 6.68527 37.6195 7.1075 37.4116C7.52973 37.2037 7.83936 36.9126 8.05047 36.5383C8.26159 36.1641 8.37418 35.7205 8.37418 35.2077L8.88085 35.277H5.78452V33.4195H10.7668V34.9027C10.7668 35.9146 10.5557 36.8017 10.1194 37.5502C9.68309 38.2987 9.07789 38.8809 8.28974 39.2829C7.50158 39.6849 6.6149 39.8789 5.61563 39.8789C4.50376 39.8789 3.51856 39.6294 2.67411 39.1443C1.82965 38.6591 1.16816 37.9522 0.703713 37.0512C0.239262 36.1502 0 35.069 0 33.8492C0 32.6294 0.239262 31.5344 0.731861 30.6195C1.22446 29.7047 1.87188 28.9978 2.71633 28.5265C3.56079 28.0552 4.50376 27.8057 5.5734 27.8057C6.46008 27.8057 7.27639 27.972 8.00825 28.3047C8.74011 28.6374 9.3453 29.1086 9.80975 29.7047C10.2742 30.3007 10.5557 30.9938 10.6683 31.7562H8.14899C8.0364 31.3819 7.86751 31.0631 7.62825 30.7997V30.7859Z" fill="#1D1D1D"/>
<path d="M22.8004 37.0789C22.3218 37.9938 21.6603 38.6869 20.8159 39.1581C19.9714 39.6294 19.0144 39.8789 17.9447 39.8789C16.8751 39.8789 15.9181 39.6433 15.0736 39.1581C14.2291 38.673 13.5676 37.9799 13.0891 37.0651C12.6106 36.1502 12.3713 35.069 12.3713 33.8354C12.3713 32.6017 12.6106 31.5067 13.0891 30.5918C13.5676 29.677 14.2291 28.9839 15.0736 28.5126C15.9181 28.0413 16.8751 27.7918 17.9447 27.7918C19.0144 27.7918 19.9714 28.0275 20.8159 28.5126C21.6603 28.9978 22.3218 29.677 22.8004 30.5918C23.2789 31.5067 23.5181 32.5878 23.5181 33.8354C23.5181 35.0829 23.2789 36.1641 22.8004 37.0789ZM20.647 31.7284C20.3937 31.1463 20.0418 30.7027 19.5774 30.4116C19.1129 30.1205 18.5781 29.9542 17.9588 29.9542C17.3396 29.9542 16.8047 30.1067 16.3403 30.4116C15.8758 30.7166 15.524 31.1463 15.2706 31.7284C15.0173 32.3106 14.8906 33.0176 14.8906 33.8354C14.8906 34.6532 15.0173 35.3601 15.2706 35.9284C15.524 36.4968 15.8899 36.9403 16.3403 37.2453C16.7907 37.5502 17.3396 37.7027 17.9588 37.7027C18.5781 37.7027 19.127 37.5364 19.5774 37.2453C20.0277 36.9542 20.3937 36.4968 20.647 35.9284C20.9003 35.3601 21.027 34.6532 21.027 33.8354C21.027 33.0176 20.9003 32.2968 20.647 31.7284Z" fill="#1D1D1D"/>
<path d="M22.9974 0L34.4679 21.1109H34.9183L46.3888 0H58.0001L39.8162 31.5347V49H29.5419V31.5347L11.4143 0H22.9974Z" fill="#1D1D1D"/>
</svg>
