<svg width="50" height="50" viewBox="0 0 50 50" fill="none" xmlns="http://www.w3.org/2000/svg">
<path fill-rule="evenodd" clip-rule="evenodd" d="M38.8795 34.2268C40.6394 31.5848 41.665 28.4118 41.665 24.9993C41.665 15.7949 34.2035 8.33337 24.9991 8.33337C15.7948 8.33337 8.33325 15.7949 8.33325 24.9993C8.33325 34.2036 15.7948 41.6652 24.9991 41.6652C28.414 41.6652 31.589 40.6381 34.232 38.8761L41.6688 41.6648L38.8795 34.2268Z" fill="#11285C"/>
<path d="M38.8795 34.2268L38.0473 33.6724C37.869 33.94 37.8303 34.2769 37.9432 34.5779L38.8795 34.2268ZM34.232 38.8761L34.5832 37.9397C34.282 37.8268 33.9449 37.8656 33.6773 38.044L34.232 38.8761ZM41.6688 41.6648L41.3177 42.6012C41.6848 42.7389 42.0986 42.6492 42.3759 42.3719C42.6532 42.0947 42.7428 41.6809 42.6051 41.3137L41.6688 41.6648ZM40.665 24.9993C40.665 28.2085 39.7011 31.1895 38.0473 33.6724L39.7118 34.7812C41.5776 31.9801 42.665 28.6151 42.665 24.9993H40.665ZM24.9991 9.33337C33.6512 9.33337 40.665 16.3472 40.665 24.9993H42.665C42.665 15.2427 34.7557 7.33337 24.9991 7.33337V9.33337ZM9.33325 24.9993C9.33325 16.3472 16.3471 9.33337 24.9991 9.33337V7.33337C15.2425 7.33337 7.33325 15.2427 7.33325 24.9993H9.33325ZM24.9991 40.6652C16.3471 40.6652 9.33325 33.6513 9.33325 24.9993H7.33325C7.33325 34.7559 15.2425 42.6652 24.9991 42.6652V40.6652ZM33.6773 38.044C31.1934 39.7 28.2105 40.6652 24.9991 40.6652V42.6652C28.6175 42.6652 31.9845 41.5763 34.7867 39.7081L33.6773 38.044ZM33.8809 39.8124L41.3177 42.6012L42.0199 40.7285L34.5832 37.9397L33.8809 39.8124ZM42.6051 41.3137L39.8158 33.8757L37.9432 34.5779L40.7325 42.016L42.6051 41.3137Z" fill="#11285C"/>
<path d="M18.2499 25C18.2499 25.8744 17.541 26.5833 16.6666 26.5833C15.7921 26.5833 15.0833 25.8744 15.0833 25C15.0833 24.1255 15.7921 23.4166 16.6666 23.4166C17.541 23.4166 18.2499 24.1255 18.2499 25Z" fill="#F5F5F5" stroke="#F5F5F5"/>
<circle cx="25.0001" cy="25" r="1.58333" fill="#F5F5F5" stroke="#F5F5F5"/>
<circle cx="33.3333" cy="25" r="1.58333" fill="#F5F5F5" stroke="#F5F5F5"/>
</svg>
