<svg width="50" height="50" viewBox="0 0 50 50" fill="none" xmlns="http://www.w3.org/2000/svg">
<path d="M38.8796 34.2268L38.0474 33.6724C37.8691 33.94 37.8304 34.2769 37.9433 34.5779L38.8796 34.2268ZM34.2322 38.8761L34.5833 37.9397C34.2821 37.8268 33.9451 37.8656 33.6774 38.044L34.2322 38.8761ZM41.6689 41.6648L41.3178 42.6012C41.685 42.7389 42.0987 42.6492 42.376 42.3719C42.6533 42.0947 42.7429 41.6809 42.6052 41.3137L41.6689 41.6648ZM40.6652 24.9993C40.6652 28.2085 39.7013 31.1895 38.0474 33.6724L39.7119 34.7812C41.5777 31.9801 42.6652 28.6151 42.6652 24.9993H40.6652ZM24.9993 9.33337C33.6513 9.33337 40.6652 16.3472 40.6652 24.9993H42.6652C42.6652 15.2427 34.7559 7.33337 24.9993 7.33337V9.33337ZM9.33337 24.9993C9.33337 16.3472 16.3472 9.33337 24.9993 9.33337V7.33337C15.2427 7.33337 7.33337 15.2427 7.33337 24.9993H9.33337ZM24.9993 40.6652C16.3472 40.6652 9.33337 33.6513 9.33337 24.9993H7.33337C7.33337 34.7559 15.2427 42.6652 24.9993 42.6652V40.6652ZM33.6774 38.044C31.1936 39.7 28.2106 40.6652 24.9993 40.6652V42.6652C28.6176 42.6652 31.9846 41.5763 34.7869 39.7081L33.6774 38.044ZM33.881 39.8124L41.3178 42.6012L42.02 40.7285L34.5833 37.9397L33.881 39.8124ZM42.6052 41.3137L39.816 33.8757L37.9433 34.5779L40.7326 42.016L42.6052 41.3137Z" fill="#ACADB1"/>
<path d="M17.75 25C17.75 25.5983 17.265 26.0833 16.6667 26.0833C16.0684 26.0833 15.5834 25.5983 15.5834 25C15.5834 24.4017 16.0684 23.9166 16.6667 23.9166C17.265 23.9166 17.75 24.4017 17.75 25Z" fill="#ACADB1" stroke="#ACADB1" stroke-width="2"/>
<circle cx="25" cy="25" r="1.08333" fill="#ACADB1" stroke="#ACADB1" stroke-width="2"/>
<circle cx="33.3333" cy="25" r="1.08333" fill="#ACADB1" stroke="#ACADB1" stroke-width="2"/>
</svg>
