<svg width="36" height="36" viewBox="0 0 36 36" fill="none" xmlns="http://www.w3.org/2000/svg">
<g clip-path="url(#clip0_35_2888)">
<path d="M36 17.9217C36 8.02383 27.9411 0 18 0C8.05887 0 0 8.02383 0 17.9217C0 26.8669 6.5823 34.2813 15.1875 35.6258V23.1022H10.6172V17.9217H15.1875V13.9734C15.1875 9.48172 17.8748 7.00068 21.9864 7.00068C23.9551 7.00068 26.0156 7.35071 26.0156 7.35071V11.7611H23.7459C21.51 11.7611 20.8125 13.1427 20.8125 14.5614V17.9217H25.8047L25.0066 23.1022H20.8125V35.6258C29.4177 34.2813 36 26.8669 36 17.9217Z" fill="white" fill-opacity="0.8"/>
<path d="M25.0066 23.1023L25.8047 17.9218H20.8125V14.5615C20.8125 13.1442 21.51 11.7612 23.7459 11.7612H26.0156V7.35077C26.0156 7.35077 23.9558 7.00073 21.9864 7.00073C17.8748 7.00073 15.1875 9.48177 15.1875 13.9734V17.9218H10.6172V23.1023H15.1875V35.6258C17.0512 35.9161 18.9488 35.9161 20.8125 35.6258V23.1023H25.0066Z" fill="#1C1C1C"/>
</g>
<defs>
<clipPath id="clip0_35_2888">
<rect width="36" height="35.8435" fill="white"/>
</clipPath>
</defs>
</svg>
