<svg width="36" height="36" viewBox="0 0 36 36" fill="none" xmlns="http://www.w3.org/2000/svg">
<path d="M35.6391 10.8028C35.6391 10.8028 35.2875 8.3209 34.2048 7.23113C32.8338 5.79685 31.3011 5.78981 30.598 5.70544C25.564 5.33984 18.0059 5.33984 18.0059 5.33984H17.9918C17.9918 5.33984 10.4337 5.33984 5.39965 5.70544C4.69657 5.78981 3.16386 5.79685 1.79285 7.23113C0.71011 8.3209 0.365601 10.8028 0.365601 10.8028C0.365601 10.8028 0 13.7205 0 16.6313V19.3592C0 22.27 0.35857 25.1878 0.35857 25.1878C0.35857 25.1878 0.71011 27.6696 1.78582 28.7594C3.15683 30.1937 4.95671 30.1445 5.75822 30.2992C8.64084 30.5734 17.9988 30.6577 17.9988 30.6577C17.9988 30.6577 25.564 30.6437 30.598 30.2851C31.3011 30.2007 32.8338 30.1937 34.2048 28.7594C35.2875 27.6696 35.6391 25.1878 35.6391 25.1878C35.6391 25.1878 35.9977 22.277 35.9977 19.3592V16.6313C35.9977 13.7205 35.6391 10.8028 35.6391 10.8028ZM14.2795 22.6707V12.5534L24.0031 17.6297L14.2795 22.6707Z" fill="white" fill-opacity="0.8"/>
</svg>
