<svg width="36" height="36" viewBox="0 0 36 36" fill="none" xmlns="http://www.w3.org/2000/svg">
<path d="M18.0035 3.24204C22.8138 3.24204 23.3835 3.26314 25.2753 3.34753C27.0334 3.42489 27.9828 3.72026 28.6157 3.9664C29.4526 4.2899 30.0574 4.68373 30.6833 5.30963C31.3163 5.94257 31.7031 6.54034 32.0266 7.37722C32.2727 8.01016 32.5681 8.96659 32.6454 10.7177C32.7298 12.6165 32.7509 13.1862 32.7509 17.9895C32.7509 22.7998 32.7298 23.3694 32.6454 25.2612C32.5681 27.0193 32.2727 27.9687 32.0266 28.6017C31.7031 29.4386 31.3092 30.0434 30.6833 30.6693C30.0504 31.3022 29.4526 31.689 28.6157 32.0125C27.9828 32.2586 27.0264 32.554 25.2753 32.6314C23.3764 32.7158 22.8068 32.7369 18.0035 32.7369C13.1932 32.7369 12.6236 32.7158 10.7318 32.6314C8.97363 32.554 8.02422 32.2586 7.39129 32.0125C6.55441 31.689 5.9496 31.2952 5.3237 30.6693C4.69076 30.0363 4.30397 29.4386 3.98047 28.6017C3.73432 27.9687 3.43895 27.0123 3.36159 25.2612C3.2772 23.3624 3.25611 22.7927 3.25611 17.9895C3.25611 13.1791 3.2772 12.6095 3.36159 10.7177C3.43895 8.95956 3.73432 8.01016 3.98047 7.37722C4.30397 6.54034 4.69779 5.93553 5.3237 5.30963C5.95663 4.67669 6.55441 4.2899 7.39129 3.9664C8.02422 3.72026 8.98066 3.42489 10.7318 3.34753C12.6236 3.26314 13.1932 3.24204 18.0035 3.24204ZM18.0035 0C13.1158 0 12.504 0.0210979 10.5841 0.105489C8.67123 0.189881 7.35613 0.499316 6.21684 0.942371C5.02833 1.40652 4.02266 2.01836 3.02403 3.02403C2.01836 4.02266 1.40652 5.02833 0.942372 6.20981C0.499316 7.35612 0.189881 8.66419 0.105489 10.5771C0.0210979 12.504 0 13.1158 0 18.0035C0 22.8912 0.0210979 23.503 0.105489 25.4229C0.189881 27.3358 0.499316 28.6509 0.942372 29.7902C1.40652 30.9787 2.01836 31.9844 3.02403 32.983C4.02266 33.9816 5.02833 34.6005 6.20981 35.0576C7.35613 35.5007 8.66419 35.8101 10.5771 35.8945C12.497 35.9789 13.1088 36 17.9965 36C22.8842 36 23.496 35.9789 25.4159 35.8945C27.3288 35.8101 28.6439 35.5007 29.7832 35.0576C30.9646 34.6005 31.9703 33.9816 32.9689 32.983C33.9676 31.9844 34.5864 30.9787 35.0436 29.7972C35.4866 28.6509 35.7961 27.3428 35.8805 25.43C35.9648 23.5101 35.9859 22.8982 35.9859 18.0105C35.9859 13.1229 35.9648 12.511 35.8805 10.5911C35.7961 8.67826 35.4866 7.36316 35.0436 6.22387C34.6005 5.02833 33.9887 4.02266 32.983 3.02403C31.9844 2.0254 30.9787 1.40652 29.7972 0.949404C28.6509 0.506349 27.3428 0.196913 25.43 0.112522C23.503 0.0210979 22.8912 0 18.0035 0Z" fill="white" fill-opacity="0.8"/>
<path d="M18.0057 8.75391C12.9 8.75391 8.75781 12.8961 8.75781 18.0018C8.75781 23.1075 12.9 27.2497 18.0057 27.2497C23.1114 27.2497 27.2536 23.1075 27.2536 18.0018C27.2536 12.8961 23.1114 8.75391 18.0057 8.75391ZM18.0057 24.0006C14.6933 24.0006 12.0069 21.3142 12.0069 18.0018C12.0069 14.6894 14.6933 12.003 18.0057 12.003C21.3181 12.003 24.0045 14.6894 24.0045 18.0018C24.0045 21.3142 21.3181 24.0006 18.0057 24.0006Z" fill="white" fill-opacity="0.8"/>
<path d="M29.7781 8.38516C29.7781 9.58047 28.8078 10.5438 27.6195 10.5438C26.4242 10.5438 25.4609 9.57344 25.4609 8.38516C25.4609 7.18985 26.4313 6.22656 27.6195 6.22656C28.8078 6.22656 29.7781 7.19688 29.7781 8.38516Z" fill="white" fill-opacity="0.8"/>
</svg>
