<svg width="59" height="59" viewBox="0 0 59 59" fill="none" xmlns="http://www.w3.org/2000/svg">
<path d="M44.6048 30.8946V28.1054H53.0435V30.8946H44.6048ZM47.5122 47.8901L40.7141 42.8317L42.4065 40.6145L49.2046 45.673L47.5122 47.8901ZM42.449 18.2531L40.7566 16.036L47.4177 11.0153L49.1101 13.2325L42.449 18.2531ZM13.3556 45.4318V35.8349H9.50268C8.5359 35.8349 7.70327 35.4856 7.00477 34.7871C6.30628 34.0886 5.95703 33.256 5.95703 32.2892V26.7108C5.95703 25.744 6.30628 24.9114 7.00477 24.2129C7.70327 23.5144 8.5359 23.1651 9.50268 23.1651H19.9033L30.9185 16.5939V42.4061L19.9033 35.8349H16.1449V45.4318H13.3556ZM28.1292 37.4754V21.5246L20.6502 25.9543H9.50268C9.3136 25.9543 9.14025 26.0331 8.98263 26.1907C8.82505 26.3483 8.74626 26.5217 8.74626 26.7108V32.2892C8.74626 32.4783 8.82505 32.6517 8.98263 32.8093C9.14025 32.9669 9.3136 33.0457 9.50268 33.0457H20.6502L28.1292 37.4754ZM34.3223 37.1681V21.8319C35.2868 22.7049 36.0637 23.8049 36.653 25.1317C37.2424 26.4586 37.5371 27.9147 37.5371 29.5C37.5371 31.0853 37.2424 32.5414 36.653 33.8683C36.0637 35.1951 35.2868 36.2951 34.3223 37.1681Z" fill="#1D1D1D"/>
</svg>
